<?xml version="1.0" encoding="UTF-8" standalone="no"?>
<svg width="256px" height="256px" viewBox="0 0 256 256" version="1.1" xmlns="http://www.w3.org/2000/svg" xmlns:xlink="http://www.w3.org/1999/xlink">
    <title>Mandala Interim Logo</title>
    <description>Created with "Sketch Internal".</description>
    <defs>
        <path d="M50.0696856,152.803869 L29.6595646,132.393748 C27.6084957,130.342679 27.6153087,127.019896 29.6689408,124.966264 L50.0696856,104.56552 L50.0696856,66.2593417 C50.0696856,63.3601627 52.420008,61.002994 55.3192777,61.002994 L93.6322111,61.002994 L112.092602,42.5426033 C114.155178,40.4800272 117.471632,40.4847733 119.520085,42.5332271 L137.989852,61.002994 L175.639766,61.002994 C178.535219,61.002994 180.889358,63.3563411 180.889358,66.2593417 L180.889358,103.902499 L202.07814,125.091282 C204.129209,127.142351 204.122396,130.465133 202.068764,132.518766 L180.889358,153.698172 L180.889358,186.73467 C180.889358,189.633849 178.539035,191.991018 175.639766,191.991018 L142.596512,191.991018 L119.645103,214.942427 C117.582527,217.005003 114.266073,217.000257 112.21762,214.951803 L89.2568347,191.991018 L55.3192777,191.991018 C52.4238248,191.991018 50.0696856,189.637671 50.0696856,186.73467 L50.0696856,152.803869 L50.0696856,152.803869 Z M103.593167,9.74505587 C101.539135,11.7990884 101.533918,15.1241161 103.579826,17.1700245 L109.929259,23.5194571 C111.975923,25.5661215 115.292845,25.5674988 117.354228,23.506116 L123.659292,17.2010519 C125.713324,15.1470194 125.718541,11.8219917 123.672633,9.7760833 L117.3232,3.42665072 C115.276536,1.37998629 111.959614,1.37860894 109.898231,3.43999181 L103.593167,9.74505587 Z M36.755045,53.2721354 C35.5873133,54.439867 35.5803799,56.3262007 36.757766,57.5035868 C37.9270004,58.6728212 39.8238618,58.6716633 40.9892173,57.5063077 C42.156949,56.3385761 42.1638824,54.4522425 40.9864963,53.2748564 C39.8172619,52.105622 37.9204005,52.1067798 36.755045,53.2721354 Z M3.68550933,122.035869 C1.63827168,124.083107 1.63944473,127.403508 3.69027967,129.454343 L5.26465185,131.028715 C7.3145241,133.078587 10.6349264,133.081685 12.6831256,131.033485 L14.2554743,129.461137 C16.3027119,127.413899 16.3015389,124.093498 14.2507039,122.042663 L12.6763318,120.468291 C10.6264595,118.418419 7.30605717,118.415321 5.25785805,120.463521 L3.68550933,122.035869 Z M68.8533316,210.353003 C66.8034102,212.402924 66.8056037,215.728697 68.8581082,217.781201 L72.5398352,221.462928 C74.5923947,223.515488 77.9181675,223.517572 79.968034,221.467705 L83.645029,217.79071 C85.6949505,215.740789 85.6927569,212.415016 83.6402524,210.362511 L79.9585255,206.680784 C77.905966,204.628225 74.5801931,204.626141 72.5303266,206.676008 L68.8533316,210.353003 Z M35.9611377,203.675833 C34.3555066,205.281464 34.360453,207.889653 35.964879,209.494078 C37.5725763,211.101776 40.1807607,211.100184 41.7831246,209.49782 C43.3887557,207.892189 43.3838093,205.284 41.7793833,203.679574 C40.171686,202.071877 37.5635015,202.073469 35.9611377,203.675833 Z M24.0008726,165.442823 C21.9509511,167.492744 21.9531447,170.818517 24.0056492,172.871022 L27.6873762,176.552749 C29.7399356,178.605308 33.0657085,178.607392 35.115575,176.557525 L38.79257,172.88053 C40.8424915,170.830609 40.8402979,167.504836 38.7877934,165.452331 L35.1060665,161.770605 C33.053507,159.718045 29.7277341,159.715961 27.6778676,161.765828 L24.0008726,165.442823 Z M24.7484136,83.1074936 C22.6984921,85.1574151 22.7006857,88.483188 24.7531902,90.5356925 L28.4349171,94.2174194 C30.4874766,96.2699789 33.8132495,96.2720625 35.863116,94.222196 L39.540111,90.545201 C41.5900325,88.4952795 41.5878389,85.1695066 39.5353344,83.1170021 L35.8536075,79.4352752 C33.801048,77.3827157 30.4752751,77.3806321 28.4254086,79.4304986 L24.7484136,83.1074936 Z M80.7672303,38.2112669 C78.7237,40.2547973 78.7299954,43.5743101 80.7719921,45.6163068 C82.8181523,47.662467 86.1376597,47.6604407 88.1770319,45.6210685 C90.2205623,43.5775381 90.2142669,40.2580253 88.1722702,38.2160286 C86.12611,36.1698684 82.8066026,36.1718946 80.7672303,38.2112669 Z M142.486118,205.113482 C140.436197,207.163403 140.438391,210.489176 142.490895,212.54168 L146.172622,216.223407 C148.225182,218.275967 151.550954,218.278051 153.600821,216.228184 L157.277816,212.551189 C159.327737,210.501268 159.325544,207.175495 157.273039,205.12299 L153.591312,201.441263 C151.538753,199.388704 148.21298,199.38662 146.163114,201.436487 L142.486118,205.113482 Z M107.351692,235.427853 C105.301771,237.477774 105.303964,240.803547 107.356469,242.856052 L111.038196,246.537779 C113.090755,248.590338 116.416528,248.592422 118.466395,246.542555 L122.14339,242.86556 C124.193311,240.815639 124.191118,237.489866 122.138613,235.437361 L118.456886,231.755634 C116.404327,229.703075 113.078554,229.700991 111.028687,231.750858 L107.351692,235.427853 Z M195.843889,158.704973 C193.793801,160.755062 193.792508,164.077619 195.840116,166.125228 L201.126151,171.411263 C203.174156,173.459268 206.49289,173.461006 208.546406,171.40749 L213.80857,166.145326 C215.858658,164.095238 215.859951,160.77268 213.812343,158.725072 L208.526308,153.439037 C206.478303,151.391032 203.159569,151.389294 201.106053,153.442809 L195.843889,158.704973 Z M216.819689,120.546596 C214.776159,122.590127 214.782454,125.909639 216.824451,127.951636 C218.870611,129.997796 222.190119,129.99577 224.229491,127.956398 C226.273021,125.912867 226.266726,122.593355 224.224729,120.551358 C222.178569,118.505198 218.859062,118.507224 216.819689,120.546596 Z M193.601266,82.3576678 C191.551178,84.4077563 191.549885,87.7303137 193.597493,89.7779223 L198.883529,95.0639575 C200.931533,97.1119624 204.250267,97.1137005 206.303783,95.0601848 L211.565947,89.7980209 C213.616036,87.7479323 213.617328,84.425375 211.56972,82.3777663 L206.283685,77.0917312 C204.23568,75.0437262 200.916946,75.0419882 198.86343,77.0955038 L193.601266,82.3576678 Z M149.719165,40.436953 C147.666753,42.489365 147.665361,45.8155909 149.715135,47.865365 L155.522541,53.6727708 C157.572728,55.7229575 160.895013,55.7246815 162.950953,53.6687416 L168.733294,47.8864003 C170.785706,45.8339883 170.787098,42.5077624 168.737324,40.4579883 L162.929918,34.6505825 C160.879731,32.6003958 157.557446,32.5986718 155.501506,34.6546117 L149.719165,40.436953 Z" id="path-1"></path>
        <filter x="-50%" y="-50%" width="200%" height="200%" filterUnits="objectBoundingBox" id="filter-3">
            <feOffset dx="0" dy="2" in="SourceAlpha" result="shadowOffsetOuter1"></feOffset>
            <feGaussianBlur stdDeviation="9" in="shadowOffsetOuter1" result="shadowBlurOuter1"></feGaussianBlur>
            <feColorMatrix values="0 0 0 0 0   0 0 0 0 0   0 0 0 0 0  0 0 0 0.0615630661 0" in="shadowBlurOuter1" type="matrix" result="shadowMatrixOuter1"></feColorMatrix>
            <feMerge>
                <feMergeNode in="shadowMatrixOuter1"></feMergeNode>
                <feMergeNode in="SourceGraphic"></feMergeNode>
            </feMerge>
        </filter>
    </defs>
    <g id="Page-1" stroke="none" stroke-width="1" fill="none" fill-rule="evenodd">
        <g id="Group-9-+-M-3" transform="translate(14.000000, 3.000000)">
            <g id="Group-9">
                <mask id="mask-2" fill="white">
                    <use xlink:href="#path-1"></use>
                </mask>
                <use id="Rectangle-9" fill="#2A69B3" xlink:href="#path-1"></use>
            </g>
            <path d="M140.029377,160.179641 L139.072525,118.11976 L116.969233,151.652695 L115.533954,151.652695 L93.2392918,118.023952 L92.4738098,160.179641 L80.7045246,160.179641 L83.6707672,89.0898204 L85.4887869,88.8982036 L116.586492,135.461078 L146.918715,88.8982036 L148.83242,89.0898204 L151.798662,160.179641 L140.029377,160.179641 Z" id="M-3" stroke="#FFFFFF" stroke-width="4.5" fill="#FFFFFF" filter="url(#filter-3)"></path>
        </g>
    </g>
</svg>
